<?xml version="1.0" encoding="utf-8"?>
<!-- Generator: Adobe Illustrator 24.2.3, SVG Export Plug-In . SVG Version: 6.00 Build 0)  -->
<svg version="1.1" id="Layer_1" xmlns="http://www.w3.org/2000/svg" xmlns:xlink="http://www.w3.org/1999/xlink" x="0px" y="0px"
	 viewBox="0 0 560.1 354.3" style="enable-background:new 0 0 560.1 354.3;" xml:space="preserve">
<style type="text/css">
	.st0{fill:#c4c4c4;stroke:#000000;}
	.st0:hover{fill: #d96f66; stroke: #000000; cursor: pointer;}
</style>
<g>
	<g id="layer1">
	</g>
	<path id="path2833" class="st0" d="M521.5,50.8l3-6l-1-9v-8l3-8h3l2,1l5-4l4,1l3,6l2,9l2,3l4,1l2,4l4,1l2,3l-6,6l-8,7l-1,4l-4,5
		l-5,5l-2,8l-6-9l-3-8L521.5,50.8z"/>
	<path id="path3607" class="st0" d="M517.5,54.8l4-4l3,12l3,8l6,9l-1,4l-6,2l-9,4l-2-9l1-13l2-4l-1-3V54.8z"/>
	<path id="path3609" class="st0" d="M510.5,90.8l7-1l-2-9l1-13l2-4l-1-3v-3l-8,1l-8,3v5l2,5l1,8h2l2,9L510.5,90.8z"/>
	<path id="path3611" class="st0" d="M510.5,100.8v-10l7-1l15-6l3,1l-1,4l3,3l4,3h3l-2-3h3l2,3l-1,2l-4,3l1,3h-4l-1-3h-3l-5-4
		L510.5,100.8z"/>
	<path id="path3613" class="st0" d="M529.5,105.8l-2-9l3-1l3,3v5L529.5,105.8z"/>
	<path id="path3615" class="st0" d="M513.5,115.8l12-8h4v-2l-2-9l-17,4v4L513.5,115.8z"/>
	<path id="path3617" class="st0" d="M449.5,117.8v-5l7-6l-3-9l16-1l9-7v-7l-3-2l13-15l13-4v5l2,5l1,8h2l2,9l2,2v10v4l3,11h4l9-5l2,1
		l-12,9l-4-1v-3l-7-2l-9-2l-1-4l-4-1h-6l-12,5h-4L449.5,117.8z"/>
	<path id="path3619" class="st0" d="M501.5,113.8l-2,6l1,6l4,4l-6,8l2,5l1-1l6,4l4-7l1-5v-5l-1-4l-2-2l1-2l2-1v-3L501.5,113.8z"/>
	<path id="path3642" class="st0" d="M508.5,152.8l-8-9v-1l-2-4l1,6l2,10h7V152.8z"/>
	<path id="path3644" class="st0" d="M459.5,147.8c2,0,39-10,39-10v2l3,15h6v5l-5,2l-1-1l-5-4l-5-11l1,10l2,4h-5l-4-1v-2l1-2l-1-3
		l-5-1l-3-2l-2-3h-4l-1,2l-4,1l-5,6L459.5,147.8z"/>
	<path id="path3646" class="st0" d="M449.5,112.8l-8,8l3,6l2,14l2,8l11-1l39-10l6-8l-4-4l-1-6l2-6l-5-1l-1-4l-4-1h-6l-12,5h-4l-20,5
		V112.8z"/>
	<path id="path3648" class="st0" d="M405.5,164.8l-5-34l3-1l12-2l4,2h6l6-2l10-7l3,6l2,13l-1,11l-2,4l-6,4v4l-3,1l-1,4l-1,3h-4l-3-3
		l-2,2h-6l-1-1h-4l-2-3L405.5,164.8z"/>
	<path id="path3650" class="st0" d="M430.5,170.8v4l3,4l9,6l6-1l3-2l5-3v-6l2-3l1-4l5-3l3-4l4-5l-1-3l4-1l3,2l2-2l-2-1l-2-3h-4l-1,2
		l-4,1l-5,6l-2-7l-11,1l-2-8l-1,10l-2,4l-6,4v4l-3,1l-2,7H430.5z"/>
	<path id="path3652" class="st0" d="M422.5,196.8c2,1,22-3,22-3l49-9l12-4l-2-4h-5l-3-3l2-3l-3-4l3-1l-4-3l-5-2l-3-2v-2l1-2l-1-3
		l-5-1l-1-1l-2,2l-3-2l-4,1l1,3l-7,9l-5,3l-1,4l-2,3v6l-8,5l-6,1l-4-3l-10,11L422.5,196.8z"/>
	<path id="path3654" class="st0" d="M503.5,162.8l-1,5v5l3-4v-5L503.5,162.8z"/>
	<path id="path3656" class="st0" d="M444.5,193.8l49-9l12-4l1,3l-2,3l-4,2v1h6l3,1l1,3l-2,2l-8,2l1,2l3,3v3l-5,2l-2,2l-6,6v4l-3,1
		l-5,2h-2l-9-8l-4-1l-7,1l-2,2h-3v-3l-2-2l-3,1h-10l-5,2l-6,4h-13v-3l4-4l5-2l7-6l3-1l6-4l2-2V193.8z"/>
	<path id="path3658" class="st0" d="M430.5,218.8v4l2,2h3l5,6l12,10l3,3l1,3l3,3l2,3h2l1-5l1-2h4l3-3v-3l3-3l3-2v-4l3-4l3-4h-3l-9-8
		l-4-1l-7,1l-2,2h-3v-3l-2-2l-3,1h-10l-5,2L430.5,218.8z"/>
	<path id="path3660" class="st0" d="M403.5,221.8l3-1l11-2h13v4l2,2h3l5,6l15,13l1,3l3,3l2,3l-1,3l-2,3v13h-6l-1,5h-9l-23,1l-3-3
		l-2-11l2-6l-8-19L403.5,221.8z"/>
	<path id="path3662" class="st0" d="M389.5,286.8l-3-8l13-2l17-2l3,3l23-1h9l1-5h6l4,13l9,12l1,6l10,14l2,3l1,20l-2,4l-6,1l-3-1
		l-5-6l-5-1l-2-7l-2-1l-1-4h-3l-3-5v-6l-1-2h-3l-2,1l-1-3l2-3v-8l-8-5l-7-6l-6-1l-8,8l-4-1l-4-7l-7-1l-3-1L389.5,286.8z"/>
	<path id="path3664" class="st0" d="M375.5,225.8c2,0,16-2,16-2l12-2l5,17l8,19l-2,6l2,11l-30,4l3,8l-5,3h-6l-2-25L375.5,225.8z"/>
	<path id="path3666" class="st0" d="M368.5,294.8l1-2h7l2-3l-2-25l-1-39l-22,1l-4,3v6l-6,9l1,15l3,4l-1,3l-4,4l-2,8v4l15-1l5-1l1,6
		l2,1l2,5L368.5,294.8z"/>
	<path id="path3668" class="st0" d="M314.5,300.8c1-1,2-7,2-7l-1-5l3-5l-4-7l-3-7v-13h21l12-1v4l3,4l-1,3l-4,4l-2,8v4l15-1l5-1l1,6
		l2,1l2,5l3,2l-2,4l-1,1v2l7,2v3l-2,2l-4-2l-5-4v3l-3,1l-5-1l-4,2l-4-1l-4-5l-2-2l-3,2l-6,1l-5-2H314.5z"/>
	<path id="path3670" class="st0" d="M311.5,249.8v7h21l12-1l-1-11l6-9v-6l4-3v-7l2-3l-1-3l-2-2l1-4h-8l-2,1h-14l-26,1v2l1,9l1,5
		l1,23h5V249.8z"/>
	<path id="path3672" class="st0" d="M353.5,226.8v-7l2-3l2-5l1-4l2-2h13l7-2l14-2l16-2l9-1l3-2h1l21-3v3l-8,6l-3,1l-7,6l-5,2l-4,4v3
		l-11,2l-3,1l-28,4L353.5,226.8z"/>
	<path id="path3674" class="st0" d="M360.5,205.8l2-3v-5l1-2h5l5-8l1-2l9-1l6-1v-3h2l2,2l2-1l1-4l3-4v-2h4l2-2v-5l5,1l2,3h4l1,1h6
		l2-2l3,3h2v4l3,4l5,3l-10,11l-9,6l-39,5l-7,2H360.5z"/>
	<path id="path3676" class="st0" d="M373.5,187.8v-7l3-5l1-4l-1-2v-4l1-3l-1-1v-7l-1-3l-1-6v-11h5l2-2l9-2h10l5,34v5l-2,2h-4v2l-3,4
		l-1,4l-2,1l-2-2h-2v3l-6,1l-9,1L373.5,187.8z"/>
	<path id="path3678" class="st0" d="M381.7,132.9l8.8-2.1h10l3-1l12-2v-6l6-7v-6l-2-4l-2-8l-2-2l-2,2l-6,7l-2-1l-1-3l4-6l1-1v-6
		l-2-2v-4l-3-1l-4-1l-5-3h-2l-3,2v4l-1,1l-1,4l-1,3h-4l-1,2v5l-2,4v7l2,4l2,3v3v7l-2,4L381.7,132.9z"/>
	<path id="path3680" class="st0" d="M366.5,87.8l-1-4l-1-3l-5-4h-6l-1-1l-8-1l-4-5l9-4l9-8l2,1l-3,4v3l6-1l5,4h7l3-3l9-3l1,3h3l6-1
		l1,4l-1,3l-8,1l-3-1l-5,3h-4l-2,3l-3,1L366.5,87.8z"/>
	<path id="path3682" class="st0" d="M368.7,123.9c-0.2-0.1-27.2,1.9-27.2,1.9l-5-3l-2-2v-7l-1-6l-9-8l-6-2l-1-11l-1-1l1-4l4-2v-8
		l3-2l6-2l3,1l7,1l4,5l8,1l1,1h6l5,4l2,10l-2,2v4l4-4l3-4l-1,5l-1,7l-2,4L368.7,123.9L368.7,123.9z"/>
	<path id="path3684" class="st0" d="M368.5,123.8l6,11v11l1,6l1,3v7l1,1l-1,3v4l1,2l-1,4l-3,5v6l-5,9h-5l-1,2l-1,1h-2l-3-9l-2-3
		l-5-1l-2-3l1-2v-6l-4-1l-1-3l-8-7l-1-9l1-3l3-4l1-3l-2-1l1-2l5-3l3-5v-2l-5-6L368.5,123.8z"/>
	<path id="path3686" class="st0" d="M303.5,209.8l25-1h15l2-1h8l-1,4l2,2l1,3l3-7v-2l2-2l2-3v-5l-1,1h-2l-3-9l-2-3l-5-1l-2-3l1-2v-6
		l-4-1l-1-3l-8-7l-1-9l-3-1h-17h-25l1,4l7,6l2,1l-1,2l-1,2l1,3l4,3c0,0,0,27,0,28S303.7,209.9,303.5,209.8z"/>
	<path id="path3688" class="st0" d="M282.5,114.8v13l4,11l3,15h42l3,1l1-3l3-4l1-3l-2-1l1-2l5-3l3-5v-2l-5-6l-5-3l-2-2v-7v-1l-23,1
		L282.5,114.8z"/>
	<path id="path3690" class="st0" d="M282.5,114.8v-25l-3-3l-1-2l3-3v-6l-2-9l-3-14v-13h21l9,6h3l2-1l6,1l2,3l3-1l3,2h5l2-1h3l2,2h8
		l-9,5l-7,7l-8,9v8l-4,2l-1,4l1,1l1,11l6,2l9,8l1,5l-21,1L282.5,114.8z"/>
	<path id="path3692" class="st0" d="M276.5,39.8l-32-1l-30-2l-1,22l-2,20l33,2l37,1v-6l-5-23V39.8z"/>
	<path id="path3694" class="st0" d="M211.5,78.8l-1,12l-3,28l54,3l5,3l9-1l5,3h2v-12v-25l-3-3l-1-2l3-3l-37-1L211.5,78.8z"/>
	<path id="path3696" class="st0" d="M207.5,118.8l-2,26l20,2v13l34,2l36,1l-5-5l-1-4l-3-15l-4-11v-1h-2l-5-3l-9,1l-5-3l-24-1
		L207.5,118.8z"/>
	<path id="path3698" class="st0" d="M225.5,159.8l-2,41l37,2h42v-28l-4-3l-1-3l2-4l-3-2l-38-1L225.5,159.8z"/>
	<path id="path3700" class="st0" d="M212.5,200.8v6l31,2l1,3l-1,24l3,2h5l3,3l6,2l4-1l3,3l7,1l8-1l2,2l3-1l6-1h6l7,4l-1-23l-1-5
		l-1-9v-2l-1-7h-42l-37-2H212.5z"/>
	<path id="path3702" class="st0" d="M212.5,206.8h-1l-4,61l-42-3v3l19,19l3,12l16,10l3-2l5-8l3-1l5,1l5,1l7,6l3,8l5,9l7,8l1,6l6,10
		l8,4h7l2,3h3v-6l-2-13l3-8l3-6l6-5l6-1h6l2-3l4-4l-1-5l3-2l2,4l3-1l6-3l1-2l1-5l-1-5l3-5l-4-7l-3-7v-21h-5l-7-4h-6l-5,1l-4,1l-2-2
		l-8,1l-7-1l-3-3l-4,1l-6-2l-3-3h-5l-3-2l1-24l-1-3L212.5,206.8z"/>
	<path id="path3704" class="st0" d="M146.5,193.8l-9,76l9,1l2-5l3-1l14,3v-3l42,3l4-61l1-6l-30-3L146.5,193.8z"/>
	<path id="path3706" class="st0" d="M154.5,139.8l-8,54l66,7h11l2-41v-13l-20-2l-23-2L154.5,139.8L154.5,139.8z"/>
	<path id="path3708" class="st0" d="M133.5,135.8l21,4l51,5l2-26l3-27l-30-3l-37-7L133.5,135.8z"/>
	<path id="path3710" class="st0" d="M214.5,36.8l-1,23l-2,19l-1,13l-30-3l-37-7l-1,5l-3-1l-3,1h-12l-2-5l-2-1l-2-13h-3l-1,2l-2-3
		l1-5l4-8l-6-4v-6l-4-2l-1-8v-7l2-2l1-6l17,4l36,7l28,4L214.5,36.8z"/>
	<path id="path3712" class="st0" d="M109.5,18.8l-8-2l-10,39l3,4l-1,5l-11,12l2,3l1,4l-2,3l-1,5l-4,18l29,7l28,6l7-36l-3-1l-3,1h-12
		l-2-5l-2-1l-2-13h-3l-1,2l-2-3l1-5l4-8l-6-4v-6l-4-2l-1-8v-7l2-2L109.5,18.8z"/>
	<path id="path3714" class="st0" d="M107.5,116.8l-14,67l53,10l8-54l-21-4l2-13L107.5,116.8L107.5,116.8z"/>
	<path id="path3716" class="st0" d="M146.5,193.8l-9,76l-24-4l-40-24l1-2l4-1v-3l-2-1v-4l4-4v-4l5-4l-2-5l-2-5l2-3l-1-12h4l2,3l4-1
		v-5l1-7L146.5,193.8z"/>
	<path id="path3718" class="st0" d="M74.5,239.8l-27-4l-1-9l-6-10l-3-2v-3l-2-1h-6l-1-4l-4-3l-5-2l-4-4v-3l2-2l-2-5l-8-19l1-2h2l1-3
		l-5-4v-7l1-2l3,2l1-3l-1-3l-3,1l-3-2v-7l-4-5v-10l2-2v-6l-2-2v-6l3-2l4-7l1-11l40,15l-11,37l44,69l4,10l-5,4v4l-4,4v4l2,1v3
		L74.5,239.8z"/>
	<path id="path3720" class="st0" d="M37.5,139.8l44,69l2-3l-1-12h4l2,3l4-1v-5l1-7l14-67l-29-7l-30-7L37.5,139.8z"/>
	<path id="path3722" class="st0" d="M10.5,87.8l40,15l30,7l5-23l2-3l-1-4l-2-3l11-12l1-5l-3-4l-6-1l-11-4h-12l-10-1l-4-2h-8l-3-2
		l1-2l1-3l-3-3l-1-2l-6-1l-3,10l-10,21l-8,12v4v3V87.8z"/>
	<path id="path3724" class="st0" d="M29.5,34.8l2-6v-8l1-10v-5c0,0,2-2,3-2s10,9,10,9l2,4l-3,4l-1,5l4,1l2-6l3-3l-1-7l2-4l-1-6l15,6
		l34,10l-10,39l-6-1l-11-4h-12l-10-1l-4-2h-8l-3-2l2-5l-3-3l-1-2L29.5,34.8z"/>
</g>
</svg>
